<svg xmlns="http://www.w3.org/2000/svg" width="64" height="77.001" viewBox="0 0 64 77.001"><path d="M60.994,76H3.153V39.561H2.879A2.887,2.887,0,0,1,0,36.693V25.371A2.889,2.889,0,0,1,2.879,22.5H25.3c-.612-.339-1.256-.685-1.939-1.052C18.6,18.9,12.687,15.718,10.717,11.012a6.827,6.827,0,0,1,.549-6.345A9.923,9.923,0,0,1,18.175.032C18.412.011,18.649,0,18.88,0a7.317,7.317,0,0,1,5.058,2.059c3.761,3.391,5.668,9.659,7.35,15.188.27.887.525,1.725.786,2.549.125-.5.249-1,.379-1.539C33.861,12.5,35.612,5.325,40.718,3.409a6.861,6.861,0,0,1,2.416-.44A8.25,8.25,0,0,1,50.72,8.816c.343,1.644-.256,3.334-1.834,5.168-2.237,2.6-6.468,5.467-12.574,8.517H61.1a2.888,2.888,0,0,1,2.88,2.869V36.693a2.888,2.888,0,0,1-2.88,2.868h-.1V76ZM28.486,25.538V73.028H35.66V25.538ZM38.644,39.561V73.027H58.011V39.561Zm-32.508,0V73.027H25.5V39.561ZM38.644,25.538V36.525H60.931V25.538Zm-35.6,0V36.525H25.5V25.538ZM19.023,3.22A6.521,6.521,0,0,0,15.029,4.7a4.775,4.775,0,0,0-1.938,3.446c-.106,3.4,4.481,6.464,6.439,7.771a52.167,52.167,0,0,0,7.519,3.982c.644.3,1.31.6,1.975.918l-.176-.686C27.478,14.793,25.6,7.488,21.905,4.255A4.3,4.3,0,0,0,19.023,3.22ZM42.955,5.906a3.738,3.738,0,0,0-.542.038c-4.146.612-5.905,8.362-6.851,12.526-.1.421-.186.818-.268,1.16.957-.573,1.9-1.051,2.9-1.556a35.917,35.917,0,0,0,4.388-2.5l.189-.13c1.713-1.179,5.277-3.633,4.9-6.291C47.411,7.355,44.88,5.906,42.955,5.906Z" transform="translate(0 0.999)" fill="#81b3d2"/></svg>