<svg xmlns="http://www.w3.org/2000/svg" width="75" height="70" viewBox="0 0 75 70"><path d="M14.713,69.958A9.891,9.891,0,0,1,5.065,59.893V58.84H4.135A4.24,4.24,0,0,1,0,54.527v-3.5A4.239,4.239,0,0,1,4.135,46.71h65.8a4.238,4.238,0,0,1,4.134,4.313v3.5a4.24,4.24,0,0,1-4.135,4.313h-.931v1.053a9.892,9.892,0,0,1-9.648,10.065ZM47.68,38.406l-5.329,4.059-5.328-4.059L31.7,42.465l-5.328-4.059-5.326,4.059-5.324-4.059-5.325,4.059L4.2,37.751l1.721-2.457,4.468,3.4,5.327-4.056,5.323,4.056,5.325-4.056L31.7,38.695l5.328-4.056,5.328,4.056,5.329-4.056,5.327,4.056,5.33-4.055L63.673,38.7l4.474-3.4,1.72,2.46-6.194,4.712L58.337,38.4l-5.33,4.06ZM8.062,31.544H5.135c-.042-.619-.07-1.241-.07-1.87,0-.393.014-.783.031-1.173C5.761,12.657,19.8,0,37.036,0s31.275,12.657,31.94,28.5c.016.39.032.778.032,1.173,0,.629-.029,1.251-.069,1.87Z" transform="translate(0.916)" fill="#81b3d2"/><ellipse cx="1.945" cy="2.03" rx="1.945" ry="2.03" transform="translate(36.007 13.23)" fill="#81b3d2"/><ellipse cx="1.946" cy="2.03" rx="1.946" ry="2.03" transform="translate(28.226 8.2)" fill="#81b3d2"/><ellipse cx="1.946" cy="2.03" rx="1.946" ry="2.03" transform="translate(43.786 8.2)" fill="#81b3d2"/></svg>