<svg xmlns="http://www.w3.org/2000/svg" width="75" height="72" viewBox="0 0 75 72"><path d="M0,23.823V0H16V23.823Z" transform="translate(29.656 41.21)" fill="#81b3d2"/><path d="M5.972,72V69.076H9.909V31.458L2.077,39.253,0,37.185,37.348,0,50.975,13.567V0H64.787V27.32l9.907,9.865-2.075,2.067-7.831-7.795V69.076h5.059V72Z" transform="translate(0.152)" fill="#81b3d2"/><path d="M37.875,31.734V27.815h3v3.919Zm-5.937,0V27.815h3v3.919Zm-26,0V27.815h3v3.919ZM0,31.734V27.815H3v3.919Zm37.875-5.972V21.843h3v3.919Zm-5.937,0V21.843h3v3.919Zm-26,0V21.843h3v3.919ZM0,25.762V21.843H3v3.919ZM12.845,7.713a7.75,7.75,0,1,1,7.75,7.713A7.732,7.732,0,0,1,12.845,7.713Z" transform="translate(17.061 19.367)" fill="#81b3d2"/></svg>