<svg xmlns="http://www.w3.org/2000/svg" width="138" height="70.001" viewBox="0 0 138 70.001"><path d="M138,0H0L59.51,65.68a12.582,12.582,0,0,0,18.98,0Z" fill="#81b3d3"/><path d="M0,0,32.148,37.879,64.168.229Z" transform="translate(36.687 0.457)" fill="#23a9e1"/><path d="M4.894,6.867C3.167,6.084-2.364,4.718,1.141,2.4a4.473,4.473,0,0,1,3.5-.645A3.634,3.634,0,0,0,8.189.77c1.842-1.672,4.254-.3,5.944,1.076,1.162.946,1.982,1.892,2.038,1.845,1.688-1.406,4.753,2.376,6.043,3.176Zm26.73-3.479-9.86.054C25.66-1.058,27.41-.575,31.624,3.388Z" transform="translate(56.206 7.852)" fill="#fff"/><path d="M0,14.583V0H66V15.04l-32.944,39.2-.22.275Z" transform="translate(36)" fill="#491213"/><path d="M0,4.22,2.61,0l2.6,4.22L2.61,8.45Z" transform="translate(66.227 41.806)" fill="#23a9e1"/><path d="M15.97,23.406c2.741-.729-.2-1.592-1.409-1.895a25.393,25.393,0,0,1,6.262-.055c-.135.523-1.15,1.149-2.236,1.345a9.9,9.9,0,0,0,1.007.687,2.45,2.45,0,0,1-1.838.95A2.178,2.178,0,0,1,15.97,23.406Zm-4.037-5.243c1.979.3,6.214-.417,7.379,1.72a1.843,1.843,0,0,1,2.746,0h0c-.171.5-1.4.754-2.944.754C16.369,20.636,12.614,19.834,11.933,18.163Zm11.453-4.148c1.462-.733,4.755-3.379,6.133-2.5L23.157,18.94C19.724,16.92,20.593,15.417,23.387,14.015ZM11.9,15.938c1.065-.441,6.593.063,3.388,1.794C13.719,17.247,8.444,17.368,11.9,15.938Zm.833-2.665c2.262-.456,4.667.506,1.63,1.52.045-.014.024-.007,0,0s-.045.013,0,0a4.4,4.4,0,0,1-1.253.175C11.227,14.968,9.743,13.876,12.73,13.273ZM17.2,14.7c-.477-1.076.365-2.36,1.74-1.427.977.662,0,1.584-1.044,1.584A1.56,1.56,0,0,1,17.2,14.7Zm-5.043-2.674c-1.005-.81-.446-2.157-.459-3.47h0c-.544,1.624-1.533,1.927-1.423-.045.126-2.274,1.609-1.729,3.2-2.6,1.324-.726,2.038-3.385,4.31-1.795,1.013.709,2.175.115,2.5,1.19C20.266,5.255,17.332,12,18.964,12c-3.22,0-1.8-3.845-.568-6.426-1.2.574-3.143,4.342-1.546,4.962A5.271,5.271,0,0,1,13.3,12.4,1.786,1.786,0,0,1,12.154,12.028Zm-4.422-.659c-5.6-.046-1.813-8.648.091-8.128,2.18.693,1.946,8.128-.064,8.128ZM1.562,3.223C-1.062,3.114.036.656,1.819.1c1.695-.527,5.25,1.114,6.39,2.2a26.543,26.543,0,0,1-6.134.568c-.146-2.026-.619-1.319-.511.348Z" transform="translate(51.061 11.616)" fill="#dc6243"/><path d="M.683,8.8c-2.908-2.987,4.342-2.712,5.51-3.763.85.284,6.99-5.377,8.485-5.025C13.6,1.276,11.29,5.3,9.631,5.3c-1.275,0-2.565-.19-3.552.718C4.635,7.346,2.242,8.022.683,8.8" transform="translate(71.091 17.028)" fill="#f49774"/><path d="M1.872,2.229C.28,3.085-1.226-.307,1.523.023,3.349.243,5.2-.131,6.943.17A5.627,5.627,0,0,1,1.872,2.229" transform="translate(70.855 19.951)" fill="#f4b1a4"/><path d="M35.23,33.685c.154-.4.518-.019.8.072a2.137,2.137,0,0,0,1.216.059A2.336,2.336,0,0,0,38.8,32.3c.228-.865-.621-1.127-1.267-.824a12.5,12.5,0,0,0-1.249.76,2.149,2.149,0,0,1-2.157.331,1.967,1.967,0,0,1-1.089-1.726,3.055,3.055,0,0,1,.986-2.05c.448-.464,1.233-.9,1.348-1.585q.833.564,1.667,1.126c.121.082.057.093-.028.224-.045.069-.335.041-.59.013a3.035,3.035,0,0,0-.356-.03,1.8,1.8,0,0,0-1.5.837c-.349.622.138,1.294.813.975.343-.164,2.628-1.864,3.975-.994,1.132.942.886,2.48.132,3.58A7.627,7.627,0,0,1,38.2,34.317a1.519,1.519,0,0,0-.706,1.015ZM23.65,33.244a29.621,29.621,0,0,1-1.96-2.325c.11-.162.272-.142.452-.123a.7.7,0,0,0,.516-.083,29.528,29.528,0,0,0,3.905-3.352c.12-.188-.078-.466.034-.561-.013.011.028-.025.071-.061s.085-.067.088-.062l.213.253a28.529,28.529,0,0,0,2.956,3.459l.013.009a.463.463,0,0,0,.258.063l-1.383,1.9c-.329-.152-.092-.354-.012-.6a2.244,2.244,0,0,0,.05-1.137c-.083-.4-.55-1.52-1.11-1.382a3.017,3.017,0,0,0-.985.714c-.064.055.581.71.644.757a.593.593,0,0,0,.69.018c-.023.012.031,0,.1-.016.126-.025.306-.049.2.072-.163.193-1.293,1.51-1.7,1.98-.3-.165.087-.522.162-.761a1.145,1.145,0,0,0-.194-1.019c-.13-.193-.358-.652-.577-.468a20.4,20.4,0,0,0-2.3,2.084c-.038.114.158.652-.1.652Zm17.587-2.8c-.038-.031-.072-.064-.068-.06-.124-.1.085-.293.02-.475-.1-.235-4.211-3.668-4.526-3.552-.024.008-.433.224-.427-.054,0-.122.356-.428.43-.517.508-.611,2.8-3.029,2.681-3.548q1.058.508,2.115,1.016c-.069.256-.436.212-.786.167a1.819,1.819,0,0,0-.516-.022,2.4,2.4,0,0,0-1.362.869c-.562.652.219,1.07.686,1.464a4.566,4.566,0,0,0,.6-.79c.2-.392-.319-.755-.143-.957a13.254,13.254,0,0,1,2.117,1.169c.252.146.046.25-.194.17-.876-.3-1.334.232-1.853.84a11.77,11.77,0,0,0,2.07,1.657c.775.379,1.341-.953,1.41-1.519A3.239,3.239,0,0,0,43.358,25c-.086-.286-.455-.734-.072-.9q.761,1.191,1.537,2.372c-.554.156-3.236,3.731-3.489,4.036l0,0A.282.282,0,0,1,41.237,30.448Zm-11.3-.049-.013-.009c-.024-.017,0-.006.018.006s.024.014.022.014Zm-11.7-3.375a3.444,3.444,0,0,1,.492-4.753,3.35,3.35,0,0,1,1.977-.793,3.627,3.627,0,0,1,3.09,1.474,3.472,3.472,0,0,1-.5,4.765,3.907,3.907,0,0,1-2.263.767A3.475,3.475,0,0,1,18.242,27.023ZM45.4,25.493c-.259-.212.012-.271-.095-.568-.061-.173-3.831-3.322-4.115-3.485a.486.486,0,0,0-.41-.016c-.154.042-.292.085-.418-.1q.96-1.158,1.922-2.316a4.013,4.013,0,0,1,3.3-1.576v0a3.951,3.951,0,0,1,2.156.827c.219.183.115.1.042.037a2.817,2.817,0,0,1,.82,3.175,27.606,27.606,0,0,1-3.2,4.022ZM13.736,21.135c-.107-.021-.417-.484-.5-.58l-1.616-1.92c.149-.212.274-.129.42-.045a.431.431,0,0,0,.372.07A13.971,13.971,0,0,0,14.168,17.3c.642-.54,1.193-2.748,1.249-2.9a5.522,5.522,0,0,0,.058-1.125c.274-.226.436.2.636.441l1.779,2.112c-.135.193-.26.131-.4.068a.358.358,0,0,0-.433.023,10.257,10.257,0,0,0-.752,1.84c.4-.071,1.9-.3,2.062-.578s-.259-.456.126-.63l1.447,1.712c-.223.329-.516.012-.823-.027h0a12.6,12.6,0,0,0-3.039.34,5.861,5.861,0,0,0-2.27,1.856c-.033.12.239.71-.033.71A.239.239,0,0,1,13.736,21.135Zm5.445-2.9Zm28.351-.382a3.5,3.5,0,0,1-.393-4.945A3.719,3.719,0,0,1,50.162,11.6h0a3.3,3.3,0,0,1,1.9.778,3.463,3.463,0,0,1,.385,4.934,3.625,3.625,0,0,1-2.771,1.325A3.35,3.35,0,0,1,47.532,17.858ZM8.042,14.377c-.106-.127-.663-.616-.659-.787,0-.225.234-.139.437-.052a.793.793,0,0,0,.276.09,51.245,51.245,0,0,0,4.138-3.306,1.9,1.9,0,0,0-1.268-.747,1.638,1.638,0,0,0-.47.08c-.327.085-.664.17-.734-.11L11.814,8.42a22.018,22.018,0,0,0,3.533,4.2l-1.455,1.84c-.432-.192.137-.823.175-1.2a1.827,1.827,0,0,0-.523-1.374c-.741.634-3.772,3.16-3.922,3.4-.2.332.268.625-.132.807Zm46.554-1c-.142-.169-4.071-3.485-4.4-3.37-.3.105-.155.173-.37,0-.061-.052-.067-.031-.032-.072l.86-1.043,1.478-1.8c.385.175.074.679.66.606.162.012,1.435-.058,1.905-.075a8.591,8.591,0,0,0-1.456-1.08.436.436,0,0,0-.26.053c-.128.059-.226.119-.363-.081L53.2,5.82c.095-.114.429-.674.578-.7.314-.049.1.517.137.613.108.233,4.127,3.76,4.6,3.515.266-.724-2.709-5.764-3.252-5.492-.324-.171-.143-.263.025-.467l.814-.982.79-.95a.214.214,0,0,1,.088-.072c.18-.062.206.544.372.611.364.275,5.356,2.268,5.83,1.795a.963.963,0,0,1,.21.176L61.244,6.448c-.042.05-.148-.081-.176-.105-.122-.1.08-.29.055-.457-.153-.994-1.756-.54-2.26-.227-.231.144-.8.435-.625.727a8.321,8.321,0,0,0,.935,1.4.357.357,0,0,0,.475.037c.117-.063.226-.126.369,0,.107.093-.787,1.082-1.062,1.4l-.11.137a.484.484,0,0,1-.135.172l-.148.184c-.305.38-.634.752-.945,1.125-.335-.154-.085-.271-.033-.515.045-.209-.5-.8-.7-.79l-5.322.2a37.856,37.856,0,0,0,3.828,2.993.414.414,0,0,0,.3-.086c.108-.076.186-.15.352-.014.077.064.046.058-.014.13l-1.168,1.418C54.5,14.009,54.841,13.667,54.6,13.376ZM5.667,11.546c-.175-.175-.325-.383-.485-.572-.476-.564-.949-1.13-1.424-1.693.132-.194.249-.14.385-.087a.416.416,0,0,0,.335.024c.246-.1,4.273-3.37,4.215-3.778-.086-.608.219-.3.459-.013l1.59,1.895c-.135.2-.231.139-.354.082a.394.394,0,0,0-.268-.046A39.153,39.153,0,0,0,6.368,10.37c-.213.181-.615.464-.555.8,0-.026.01.093.007.211s-.018.214-.075.214A.123.123,0,0,1,5.667,11.546ZM2.4,7.815C2.036,7.08,1.309,6.672.823,6.026a3.731,3.731,0,0,1-.808-2.6c.142-1.744,1.9-3.668,3.762-3.4a3.807,3.807,0,0,1,2.26,1.483c.509.592.809,1.274,1.493,1.684Q6.692,4.259,5.854,5.324c-.423-.187-.14-.508-.035-.836A2.35,2.35,0,0,0,5.88,2.864a1.829,1.829,0,0,0-2.84-.544A3.013,3.013,0,0,0,1.7,5.436a2.087,2.087,0,0,0,2.73,1.327l-.008,0,.009,0A.932.932,0,0,1,4.536,7a17.649,17.649,0,0,1-2.106.819A.082.082,0,0,1,2.4,7.815Zm1.814-.99h0Zm.006,0h0Zm0,0,.005,0Zm.014,0h0Zm.008,0,.006,0Zm.011,0h0Zm.007,0h0Zm.012,0,.011,0ZM4.3,6.8h0Zm.029-.009h0Zm.009,0,.006,0Zm.027-.008.007,0Zm.012,0h0Zm.017-.005h0Zm.005,0h0Zm.013,0h0Zm.014,0h0Z" transform="translate(37.57 9.047)" fill="#fff"/></svg>