<svg xmlns="http://www.w3.org/2000/svg" display="none">
    <symbol viewBox="0 0 21 22.041" id="calendar">
        <g transform="translate(0 -0.959)">
            <path id="Shape" d="M1.75,22.041A1.794,1.794,0,0,1,0,20.2V3.9A1.8,1.8,0,0,1,1.75,2.066H4.593V.689a.657.657,0,1,1,1.313,0V2.066H9.844V.689a.657.657,0,1,1,1.312,0V2.066h3.938V.689a.657.657,0,1,1,1.312,0V2.066h2.845A1.794,1.794,0,0,1,21,3.9V20.2a1.793,1.793,0,0,1-1.749,1.836Z" transform="translate(0 0.959)"/>
            <path id="Shape-2" d="M9.187,8.953V6.887h2.624V8.953Zm-4.594,0V6.887H7.219V8.953ZM0,8.953V6.887H2.625V8.953ZM9.187,5.51V3.443h2.624V5.51Zm-4.594,0V3.443H7.219V5.51ZM0,5.51V3.443H2.625V5.51ZM9.187,2.066V0h2.624V2.066Zm-4.594,0V0H7.219V2.066ZM0,2.066V0H2.625V2.066Z" transform="translate(4.594 9.225)"/>
        </g>
    </symbol>
</svg>
